<?xml version="1.0" encoding="iso-8859-1"?>
<!-- Generator: Adobe Illustrator 16.0.0, SVG Export Plug-In . SVG Version: 6.00 Build 0)  -->
<!DOCTYPE svg PUBLIC "-//W3C//DTD SVG 1.1//EN" "http://www.w3.org/Graphics/SVG/1.1/DTD/svg11.dtd">
<svg version="1.1" id="Layer_1" xmlns="http://www.w3.org/2000/svg" xmlns:xlink="http://www.w3.org/1999/xlink" x="0px" y="0px"
	 width="53.395px" height="44.701px" viewBox="0 0 53.395 44.701" style="enable-background:new 0 0 53.395 44.701;"
	 xml:space="preserve">
<path style="fill:#303A4C;" d="M37.85,20.89c-2.739-1.408-4.108-2.425-5.753-4.734c-1.544-2.17-3.365-3.513-5.073-3.667V11.03
	c0-0.176,0.238-0.473,0.49-0.792c0.504-0.632,1.192-1.5,1.192-2.674c0-1.042-0.515-1.633-0.947-1.944
	c-0.518-0.372-1.132-0.504-1.5-0.504c-1.111,0-1.785,0.676-2.327,1.219c-0.226,0.227-0.432,0.433-0.624,0.538
	c-0.067-0.057-0.154-0.092-0.249-0.092c-0.216,0-0.392,0.175-0.392,0.392c0,0.216,0.176,0.392,0.392,0.392
	c0.213,0,0.386-0.171,0.391-0.383c0.243-0.126,0.472-0.355,0.724-0.606c0.523-0.525,1.115-1.12,2.086-1.12
	c0.548,0,2.108,0.387,2.108,2.109c0,1.057-0.646,1.869-1.119,2.464c-0.314,0.396-0.564,0.709-0.564,1.002v1.443
	c-1.796,0.007-3.746,1.379-5.386,3.682c-1.644,2.31-3.013,3.326-5.752,4.734C3.768,26.681,2.163,26.799,2.241,30.28
	c0.04,0.861,1.946-0.587,1.946-0.587L6.4,28.475V32.3h4.154v0.902h0.326v1.982h2.225v-1.982h0.301V32.3h26.589v0.902h0.314v1.982
	h2.225v-1.982h0.313V32.3h4.147v-3.825l2.213,1.219c0,0,1.906,1.448,1.945,0.587C51.232,26.799,49.628,26.681,37.85,20.89z
	 M46.717,32.02h-3.869v-0.629h-0.313v-0.769H40.31v0.769h-0.314v0.629H13.406v-0.629h-0.301v-0.769h-2.225v0.769h-0.326v0.629H6.679
	v-3.698l20.019-11.026l20.02,11.026V32.02z"/>
</svg>
