<?xml version="1.0" encoding="iso-8859-1"?>
<!-- Generator: Adobe Illustrator 18.1.1, SVG Export Plug-In . SVG Version: 6.00 Build 0)  -->
<svg version="1.1" id="Capa_1" xmlns="http://www.w3.org/2000/svg" xmlns:xlink="http://www.w3.org/1999/xlink" x="0px" y="0px"
	 viewBox="0 0 55.836 55.836" style="enable-background:new 0 0 55.836 55.836;" xml:space="preserve">
<g>
	<g>
		<path style="fill:#303A4C;" d="M52.96,12.21H33.824h-1.703h-8.408h-1.75H2.875C1.29,12.21,0,13.39,0,14.84s1.29,2.63,2.875,2.63
			h0.38l3.196,23.989c0.163,1.215,1.251,2.167,2.476,2.167h38.1c1.227,0,2.313-0.952,2.477-2.167l3.195-23.989h0.262
			c1.585,0,2.875-1.18,2.875-2.63C55.835,13.39,54.545,12.21,52.96,12.21z M23.713,13.959h8.361v1.662h-8.361
			C23.713,15.621,23.713,13.959,23.713,13.959z M2.875,15.72c-0.62,0-1.125-0.395-1.125-0.88c0-0.486,0.505-0.881,1.125-0.881
			h19.088v1.761H2.875z M47.767,41.227c-0.045,0.34-0.397,0.649-0.74,0.649h-38.1c-0.343,0-0.695-0.31-0.74-0.649L5.022,17.47
			h45.909L47.767,41.227z M52.959,15.719H33.871v-1.76h19.088c0.62,0,1.125,0.395,1.125,0.88
			C54.084,15.324,53.579,15.719,52.959,15.719z"/>
		<path style="fill:#303A4C;" d="M12.145,39.863h6.93c0.827,0,1.5-0.674,1.5-1.5V20.982c0-0.827-0.673-1.5-1.5-1.5h-6.93
			c-0.827,0-1.5,0.673-1.5,1.5v17.381C10.645,39.189,11.318,39.863,12.145,39.863z M17.744,20.482h1.331c0.275,0,0.5,0.224,0.5,0.5
			v3.631h-1.831V20.482z M17.744,25.613h1.831v3.921h-1.831V25.613z M17.744,30.534h1.831v3.921h-1.831V30.534z M17.744,35.455
			h1.831v2.908c0,0.275-0.225,0.5-0.5,0.5h-1.331V35.455z M14.55,20.482h2.194v4.131H14.55V20.482z M14.55,25.613h2.194v3.921H14.55
			V25.613z M14.55,30.534h2.194v3.921H14.55V30.534z M14.55,35.455h2.194v3.408H14.55V35.455z M11.645,20.982
			c0-0.276,0.225-0.5,0.5-0.5h1.404v4.131h-1.904V20.982z M11.645,25.613h1.904v3.921h-1.904V25.613z M11.645,30.534h1.904v3.921
			h-1.904V30.534z M11.645,35.455h1.904v3.408h-1.404c-0.275,0-0.5-0.225-0.5-0.5V35.455z"/>
		<path style="fill:#303A4C;" d="M24.594,39.863h6.931c0.826,0,1.5-0.674,1.5-1.5V20.982c0-0.827-0.674-1.5-1.5-1.5h-6.931
			c-0.827,0-1.5,0.673-1.5,1.5v17.381C23.094,39.189,23.767,39.863,24.594,39.863z M30.192,20.482h1.33c0.275,0,0.5,0.224,0.5,0.5
			v3.631h-1.83V20.482z M30.192,25.613h1.83v3.921h-1.83V25.613z M30.192,30.534h1.83v3.921h-1.83V30.534z M30.192,35.455h1.83
			v2.908c0,0.275-0.225,0.5-0.5,0.5h-1.33V35.455z M26.998,20.482h2.194v4.131h-2.194C26.998,24.613,26.998,20.482,26.998,20.482z
			 M26.998,25.613h2.194v3.921h-2.194C26.998,29.534,26.998,25.613,26.998,25.613z M26.998,30.534h2.194v3.921h-2.194
			C26.998,34.455,26.998,30.534,26.998,30.534z M26.998,35.455h2.194v3.408h-2.194C26.998,38.863,26.998,35.455,26.998,35.455z
			 M24.094,20.982c0-0.276,0.225-0.5,0.5-0.5h1.404v4.131h-1.904V20.982z M24.094,25.613h1.904v3.921h-1.904V25.613z M24.094,30.534
			h1.904v3.921h-1.904V30.534z M24.094,35.455h1.904v3.408h-1.404c-0.275,0-0.5-0.225-0.5-0.5V35.455z"/>
		<path style="fill:#303A4C;" d="M37.042,39.863h6.93c0.827,0,1.5-0.674,1.5-1.5V20.982c0-0.827-0.673-1.5-1.5-1.5h-6.93
			c-0.827,0-1.5,0.673-1.5,1.5v17.381C35.542,39.189,36.215,39.863,37.042,39.863z M42.642,20.482h1.33c0.275,0,0.5,0.224,0.5,0.5
			v3.631h-1.83V20.482z M42.642,25.613h1.83v3.921h-1.83V25.613z M42.642,30.534h1.83v3.921h-1.83V30.534z M42.642,35.455h1.83
			v2.908c0,0.275-0.225,0.5-0.5,0.5h-1.33V35.455z M39.446,20.482h2.193v4.131h-2.193V20.482z M39.446,25.613h2.193v3.921h-2.193
			V25.613z M39.446,30.534h2.193v3.921h-2.193V30.534z M39.446,35.455h2.193v3.408h-2.193V35.455z M36.542,20.982
			c0-0.276,0.225-0.5,0.5-0.5h1.404v4.131h-1.904V20.982z M36.542,25.613h1.904v3.921h-1.904V25.613z M36.542,30.534h1.904v3.921
			h-1.904V30.534z M36.542,35.455h1.904v3.408h-1.404c-0.275,0-0.5-0.225-0.5-0.5V35.455z"/>
	</g>
</g>
</svg>
