<?xml version="1.0" encoding="iso-8859-1"?>
<!-- Generator: Adobe Illustrator 16.0.0, SVG Export Plug-In . SVG Version: 6.00 Build 0)  -->
<!DOCTYPE svg PUBLIC "-//W3C//DTD SVG 1.1//EN" "http://www.w3.org/Graphics/SVG/1.1/DTD/svg11.dtd">
<svg version="1.1" id="Layer_1" xmlns="http://www.w3.org/2000/svg" xmlns:xlink="http://www.w3.org/1999/xlink" x="0px" y="0px"
	 width="53.395px" height="44.701px" viewBox="0 0 53.395 44.701" style="enable-background:new 0 0 53.395 44.701;"
	 xml:space="preserve">
<g>
	<path style="fill-rule:evenodd;clip-rule:evenodd;fill:#FFFFFF;" d="M4.26,31.524v2.235h39.633v-2.235
		c0-0.403-0.383-0.792-0.799-0.792H5.059C4.623,30.732,4.26,31.108,4.26,31.524"/>
	<path style="fill-rule:evenodd;clip-rule:evenodd;fill:#FFFFFF;" d="M17.729,16.082v2.25h7.418v-2.25
		c0-0.383-0.355-0.758-0.744-0.758h-5.936C18.091,15.324,17.729,15.666,17.729,16.082"/>
	<path style="fill-rule:evenodd;clip-rule:evenodd;fill:#FFFFFF;" d="M14.506,18.5v2.248h7.426V18.5
		c0-0.369-0.377-0.746-0.752-0.746h-5.922C14.895,17.754,14.506,18.09,14.506,18.5"/>
	<path style="fill-rule:evenodd;clip-rule:evenodd;fill:#FFFFFF;" d="M28.209,20.211L28.209,20.211h0.194h0.161h16.73l-1.262-6.605
		h-8.265c-1.806-0.014-3.31-0.128-4.988,0.818C27.651,16.17,25.033,20.145,28.209,20.211 M47.82,26.476
		c-2.035,0.624-6.445,1.423-6.312,4.311H9.686H9.443l-2.719-0.007l-0.007-0.906c4.847-7.982,16.973-18.939,26.774-18.934
		l11.643,0.033h1.114l0.188,1.074l2.699,14.174L47.82,26.476z"/>
	<path style="fill-rule:evenodd;clip-rule:evenodd;fill:#FFFFFF;" d="M29.491,19.299v0.912h7.425v-0.912
		c0-0.377-0.349-0.766-0.752-0.766h-5.921C29.867,18.533,29.491,18.889,29.491,19.299"/>
	<path style="fill-rule:evenodd;clip-rule:evenodd;fill:#FFFFFF;" d="M15.553,26.744L15.553,26.744h0.188h0.147l25.781-3.921
		c2.739-0.423,3.732-1.135,3.639-2.531l-1.483-7.882l-8.292,0.007C23.69,12.76,12.371,26.684,15.553,26.744 M47.82,26.476
		c-2.035,0.624-6.445,1.423-6.312,4.311H9.686H9.443l-2.719-0.007l-0.007-0.906c4.847-7.982,16.973-18.939,26.774-18.934
		l11.643,0.033h1.114l0.188,1.074l2.699,14.174L47.82,26.476z"/>
</g>
</svg>
